<?xml version="1.0" encoding="UTF-8"?>
<svg version="1.1" xmlns="http://www.w3.org/2000/svg" width="500" height="500">
<path d="M0 0 C23.37675234 -0.69712558 44.15706882 6.99826906 61.19921875 23.04296875 C63.49849876 25.2179126 63.49849876 25.2179126 66.15234375 27.2734375 C68.7098062 29.33480355 70.47078056 31.57132725 72.48828125 34.15625 C75.3444689 37.17111474 78.35571474 39.93586329 81.48828125 42.65625 C85.64875778 46.27032248 89.49605468 49.94077245 92.98828125 54.21875 C95.31068858 57.14828182 95.31068858 57.14828182 97.89453125 59.03125 C106.82013363 66.34379171 112.32655428 77.94095366 114.48828125 89.15625 C115.87080579 105.05528226 111.52998643 117.63504299 101.98828125 130.23046875 C99.65979356 132.955527 97.33012913 134.99606158 94.48828125 137.15625 C93.13441189 138.80627828 91.80149983 140.4736887 90.48828125 142.15625 C87.17469358 145.64895051 83.65137197 148.76752961 79.94140625 151.82421875 C78.36048942 153.1142191 78.36048942 153.1142191 77.48828125 155.15625 C72.55558168 154.73344718 70.84192313 152.63644441 67.48828125 149.15625 C66.03808594 147.81046875 66.03808594 147.81046875 64.55859375 146.4375 C63.57675031 145.51049356 62.59497987 144.5834098 61.61328125 143.65625 C61.1028125 143.19605469 60.59234375 142.73585937 60.06640625 142.26171875 C58.62109375 140.875 58.62109375 140.875 56.48828125 138.15625 C56.57003912 134.66973104 57.38328045 133.28022757 59.6496582 130.60424805 C60.58253662 129.71777588 61.51541504 128.83130371 62.4765625 127.91796875 C62.97616989 127.43350784 63.47577728 126.94904694 63.99052429 126.4499054 C66.11717342 124.38823451 68.26652019 122.35085757 70.41479492 120.31176758 C80.56149024 111.02614469 80.56149024 111.02614469 84.87890625 98.3125 C84.8325 97.1059375 84.78609375 95.899375 84.73828125 94.65625 C84.7021875 93.4290625 84.66609375 92.201875 84.62890625 90.9375 C84.5825 90.0196875 84.53609375 89.101875 84.48828125 88.15625 C83.82828125 88.15625 83.16828125 88.15625 82.48828125 88.15625 C82.48828125 88.81625 82.48828125 89.47625 82.48828125 90.15625 C81.22827148 91.3972168 81.22827148 91.3972168 79.359375 92.91796875 C73.3924635 97.9931972 67.92967119 103.56534625 62.40405273 109.11010742 C60.53418372 110.98539563 58.65895226 112.85520465 56.78320312 114.72460938 C55.59212664 115.91634565 54.40135985 117.10839155 53.2109375 118.30078125 C52.37043602 119.13824638 52.37043602 119.13824638 51.51295471 119.99263 C48.64770792 122.80755873 48.64770792 122.80755873 46.48828125 126.15625 C42.66140792 125.60955381 40.41916703 124.61673685 37.36328125 122.28125 C29.3537976 116.76478444 20.09865282 115.00196786 10.48828125 116.15625 C-4.90308124 119.38023954 -13.46392513 128.84989104 -23.94287109 139.77929688 C-32.86361503 149.05709548 -41.1386183 157.17675443 -54.63671875 157.53125 C-61.46637034 157.5869755 -66.05677529 156.26532313 -71.51171875 152.15625 C-72.41921875 151.558125 -73.32671875 150.96 -74.26171875 150.34375 C-80.25853124 144.51351564 -83.14286806 137.65622843 -83.82421875 129.34375 C-83.41811689 116.99347591 -76.51545772 108.87905519 -68.17773438 100.48413086 C-67.5751178 99.86997818 -66.97250122 99.2558255 -66.35162354 98.62306213 C-64.37933552 96.61679512 -62.39951679 94.61821307 -60.41796875 92.62109375 C-59.39330757 91.58607821 -59.39330757 91.58607821 -58.34794617 90.53015327 C-54.73242347 86.8789355 -51.11089743 83.23379722 -47.484375 79.59350586 C-43.76857059 75.86117279 -40.07419837 72.10835994 -36.38437653 68.35036373 C-33.51687007 65.43778545 -30.63358925 62.54120448 -27.74601746 59.64853096 C-26.37838562 58.27307491 -25.01655821 56.89181892 -23.66108704 55.50437737 C-14.58387132 46.227324 -3.68837965 35.42575903 10.17578125 35.05859375 C11.61331372 35.06522443 13.05082962 35.07712467 14.48828125 35.09375 C15.57496094 35.10051758 15.57496094 35.10051758 16.68359375 35.10742188 C18.6185177 35.11991677 20.5534049 35.13780309 22.48828125 35.15625 C23.47828125 35.15625 24.46828125 35.15625 25.48828125 35.15625 C13.96289139 30.7470706 4.5790843 29.16930469 -7.69921875 31.15625 C-8.84777344 31.341875 -9.99632812 31.5275 -11.1796875 31.71875 C-24.69600435 35.47663485 -34.48287925 45.25048918 -44.01171875 54.9296875 C-45.34394681 56.26295625 -46.67722041 57.595181 -48.01147461 58.92642212 C-50.78398068 61.69910616 -53.54599958 64.48168693 -56.30029297 67.27246094 C-59.81108372 70.82875495 -63.34373923 74.36232966 -66.88406372 77.8891964 C-69.63197848 80.63039589 -72.36975988 83.38153776 -75.10449219 86.13588333 C-76.40307828 87.44210222 -77.70429264 88.74571419 -79.00830078 90.04652023 C-90.88532719 101.91866047 -99.42775974 112.63931453 -99.88671875 130.15625 C-99.57003809 142.75463264 -95.34780654 153.83879299 -86.78515625 163.16796875 C-79.45874189 169.57543423 -70.30331784 174.49065792 -60.51171875 175.15625 C-59.51398438 175.22457031 -58.51625 175.29289063 -57.48828125 175.36328125 C-39.70712559 175.92282811 -22.13496973 171.3560244 -5.01171875 167.09375 C23.12977394 160.14335114 49.60703962 155.0231935 76.0625 170.6796875 C92.50508614 181.67582831 105.01562287 196.8406981 110.42578125 216.09375 C114.38975381 236.33478488 111.67550352 256.53226848 100.85745239 274.15072632 C94.12409384 284.01356203 85.58822035 292.39640034 77.1953125 300.8203125 C75.9188583 302.10576364 74.64246696 303.39127721 73.36613464 304.67684937 C70.70470502 307.35465074 68.03901898 310.02813386 65.37084961 312.69921875 C61.98492176 316.09052979 58.61546571 319.49771662 55.24974537 322.90906715 C52.62344595 325.56537642 49.98569883 328.21009819 47.34485435 330.85194016 C46.09903668 332.10190969 44.85725484 333.3559175 43.61997414 334.61433792 C27.59775721 350.8884772 7.9390282 363.70704654 -15.51171875 365.15625 C-16.76082031 365.23552734 -16.76082031 365.23552734 -18.03515625 365.31640625 C-31.68826319 365.74657263 -45.28989147 363.3021832 -57.51171875 357.15625 C-58.43210937 356.71410156 -59.3525 356.27195312 -60.30078125 355.81640625 C-74.76110161 348.46404618 -85.72853139 336.2828321 -97.046875 324.93676758 C-99.76043704 322.22003321 -102.48710493 319.51694418 -105.21484375 316.81445312 C-106.96565412 315.06591521 -108.71568112 313.31659249 -110.46484375 311.56640625 C-111.26915833 310.77130142 -112.0734729 309.97619659 -112.90216064 309.15699768 C-125.5912706 296.36454288 -131.8305463 283.94011384 -131.89672852 266.00634766 C-131.59613376 247.94791474 -120.68767569 235.78181316 -108.5222168 223.66577148 C-106.80248605 221.94702979 -105.10537225 220.20778904 -103.40820312 218.46679688 C-102.31510044 217.36849793 -101.22074533 216.27144371 -100.125 215.17578125 C-99.36864006 214.39482841 -99.36864006 214.39482841 -98.59700012 213.59809875 C-97.1496582 212.17895508 -97.1496582 212.17895508 -94.51171875 210.15625 C-91.36096383 210.2371817 -90.57160254 211.10298653 -88.1796875 213.23046875 C-87.36113281 214.09285156 -86.54257813 214.95523438 -85.69921875 215.84375 C-82.71142527 218.94662886 -79.76263312 221.85664574 -76.38671875 224.53125 C-75.43796875 225.3975 -74.48921875 226.26375 -73.51171875 227.15625 C-73.51171875 231.15625 -73.51171875 231.15625 -75.12109375 232.90234375 C-76.18070313 233.73958984 -76.18070313 233.73958984 -77.26171875 234.59375 C-80.46626744 237.22947721 -82.94751752 239.88468291 -85.51171875 243.15625 C-87.16174703 244.51011936 -88.82915745 245.84303142 -90.51171875 247.15625 C-96.90847613 252.8969297 -101.91023332 259.18981739 -102.69921875 267.91796875 C-102.45353834 270.85077866 -101.46975931 273.38365979 -100.51171875 276.15625 C-95.54200143 271.21182897 -90.57616246 266.26353786 -85.61303711 261.3125 C-83.92317951 259.62767996 -82.23242668 257.94375734 -80.54077148 256.26074219 C-78.11337734 253.84543878 -75.68919105 251.4269563 -73.265625 249.0078125 C-72.50520401 248.2525528 -71.74478302 247.49729309 -70.96131897 246.71914673 C-70.26066818 246.01857147 -69.5600174 245.31799622 -68.83813477 244.59619141 C-67.90880882 243.67019638 -67.90880882 243.67019638 -66.96070862 242.72549438 C-65.41809679 241.20084688 -65.41809679 241.20084688 -64.51171875 239.15625 C-62.38671875 238.84375 -62.38671875 238.84375 -59.51171875 239.15625 C-58.09462758 240.34265191 -56.68201157 241.53593116 -55.31640625 242.78125 C-48.45671417 248.00768206 -38.95264875 249.88788759 -30.51171875 249.15625 C-21.89210574 247.87039117 -15.30492114 245.64409193 -8.51171875 240.15625 C-7.87492187 239.64578125 -7.238125 239.1353125 -6.58203125 238.609375 C-1.88614624 234.69949649 2.40123547 230.48795982 6.30078125 225.78125 C12.36847519 218.64551809 20.48054753 211.15882791 29.48828125 208.15625 C45.58653912 206.99137013 45.58653912 206.99137013 52.48828125 212.15625 C53.18566406 212.66542969 53.88304687 213.17460937 54.6015625 213.69921875 C60.39029241 218.32385307 63.175331 223.21739925 65.48828125 230.15625 C66.28194826 238.70443401 65.73001947 246.93016866 60.13922119 253.81837463 C55.31216927 259.35990042 50.19722173 264.56088883 44.9765625 269.73046875 C43.64059273 271.06075859 43.64059273 271.06075859 42.27763367 272.41792297 C39.45444279 275.22898034 36.62812161 278.03686797 33.80078125 280.84375 C30.06466472 284.55294242 26.33219006 288.26575339 22.6015625 291.98046875 C21.74734207 292.82639084 20.89312164 293.67231293 20.01301575 294.54386902 C18.81608345 295.73584648 18.81608345 295.73584648 17.5949707 296.9519043 C16.89660599 297.6450322 16.19824127 298.3381601 15.47871399 299.05229187 C13.33475975 301.31852768 11.42411675 303.71135759 9.48828125 306.15625 C7.84441491 307.84540926 6.17645058 309.51136706 4.48828125 311.15625 C3.62332031 312.03023438 2.75835937 312.90421875 1.8671875 313.8046875 C-7.88966262 323.25029275 -18.501804 330.37886597 -32.57421875 330.21875 C-33.59644531 330.20972656 -34.61867188 330.20070313 -35.671875 330.19140625 C-37.07759766 330.17400391 -37.07759766 330.17400391 -38.51171875 330.15625 C-39.83171875 330.15625 -41.15171875 330.15625 -42.51171875 330.15625 C-27.67141701 335.83358963 -15.44406849 336.67432417 -0.29296875 330.9375 C8.31034425 326.94627232 14.53720567 321.10732558 21.17578125 314.46875 C23.07560911 312.56892214 24.9912675 310.87251146 27.05078125 309.15625 C29.93056008 306.72429854 32.18485516 304.15070392 34.48828125 301.15625 C37.3444689 298.14138526 40.35571474 295.37663671 43.48828125 292.65625 C47.62558719 289.06230507 51.46249754 285.41875303 54.92578125 281.15625 C57.55579357 278.07721119 60.35078465 275.70546599 63.48828125 273.15625 C74.09144519 262.98410899 81.33435274 252.48420112 81.95483398 237.55932617 C82.15031656 223.87982675 78.98607296 212.39093934 69.48828125 202.15625 C57.40315366 191.55214295 44.06733657 189.30557867 28.48828125 190.15625 C25.57288139 190.45561278 22.68923198 190.88517805 19.796875 191.35546875 C18.98535477 191.48577988 18.17383453 191.616091 17.33772278 191.75035095 C7.34305003 193.42501762 -2.48083754 195.83082344 -12.32421875 198.21875 C-39.7496009 204.86074144 -66.87432307 210.38139518 -92.828125 195.21875 C-110.64421563 183.43951652 -122.73213819 167.7374431 -128.38671875 146.96875 C-132.36311959 127.39628597 -128.8814565 108.19488437 -118.51171875 91.15625 C-111.75941838 81.42794047 -103.86203985 73.05889048 -95.48828125 64.734375 C-94.25293162 63.49699631 -93.01802689 62.2591733 -91.78353882 61.02093506 C-89.21501688 58.44803052 -86.64125332 55.88052565 -84.06347656 53.31689453 C-80.79018233 50.06070758 -77.53057307 46.79120539 -74.27480507 43.51750565 C-71.73379845 40.96556581 -69.18557539 38.4209275 -66.63523483 35.87831879 C-65.43159394 34.67665271 -64.23010345 33.47282803 -63.03099442 32.26663971 C-45.35499464 14.50917075 -25.95682013 1.15491969 0 0 Z " fill="#27272a" transform="translate(259.51171875,67.84375)"/>
<path d="" fill="#000000" transform="translate(0,0)"/>
<path d="" fill="#000000" transform="translate(0,0)"/>
<path d="" fill="#000000" transform="translate(0,0)"/>
<path d="" fill="#000000" transform="translate(0,0)"/>
<path d="" fill="#000000" transform="translate(0,0)"/>
<path d="" fill="#000000" transform="translate(0,0)"/>
<path d="" fill="#000000" transform="translate(0,0)"/>
<path d="" fill="#000000" transform="translate(0,0)"/>
<path d="" fill="#000000" transform="translate(0,0)"/>
<path d="" fill="#000000" transform="translate(0,0)"/>
<path d="" fill="#000000" transform="translate(0,0)"/>
</svg>
